HIERARCHY
ROOT Hips
{
	OFFSET -3.958830 18.904000 13.208200
	CHANNELS 6 Xposition Yposition Zposition Zrotation Yrotation Xrotation 
	JOINT LHipJoint
	{
		OFFSET 0.000000 0.000000 0.000000
		CHANNELS 3 Zrotation Yrotation Xrotation
		JOINT LeftUpLeg
		{
			OFFSET 1.800000 -1.400000 0.085000
			CHANNELS 3 Zrotation Yrotation Xrotation
			JOINT LeftLeg
			{
				OFFSET 2.215000 -6.000000 0.000000
				CHANNELS 3 Zrotation Yrotation Xrotation
				JOINT LeftFoot
				{
					OFFSET 2.500000 -6.900000 0.000000
					CHANNELS 3 Zrotation Yrotation Xrotation
					JOINT LeftToeBase
					{
						OFFSET 0.200000 -0.500000 1.950000
						CHANNELS 3 Zrotation Yrotation Xrotation
						End Site
						{
							OFFSET 0.000000 0.000000 0.000000
						}
					}
				}
			}
		}
	}
	JOINT RHipJoint
	{
		OFFSET 0.000000 0.000000 0.000000
		CHANNELS 3 Zrotation Yrotation Xrotation
		JOINT RightUpLeg
		{
			OFFSET -1.800000 -1.400000 0.085000
			CHANNELS 3 Zrotation Yrotation Xrotation
			JOINT RightLeg
			{
				OFFSET -2.215000 -6.000000 0.000000
				CHANNELS 3 Zrotation Yrotation Xrotation
				JOINT RightFoot
				{
					OFFSET -2.500000 -6.900000 0.000000
					CHANNELS 3 Zrotation Yrotation Xrotation
					JOINT RightToeBase
					{
						OFFSET -0.200000 -0.500000 1.950000
						CHANNELS 3 Zrotation Yrotation Xrotation
						End Site
						{
							OFFSET 0.000000 0.000000 0.000000
						}
					}
				}
			}
		}
	}
	JOINT LowerBack
	{
		OFFSET 0.000000 0.000000 0.000000
		CHANNELS 3 Zrotation Yrotation Xrotation
		JOINT Spine
		{
			OFFSET -0.087000 1.940000 -0.288900
			CHANNELS 3 Zrotation Yrotation Xrotation
			JOINT Spine1
			{
				OFFSET 0.000000 1.950000 0.060000
				CHANNELS 3 Zrotation Yrotation Xrotation
				JOINT Neck
				{
					OFFSET 0.000000 0.000000 0.000000
					CHANNELS 3 Zrotation Yrotation Xrotation
					JOINT Neck1
					{
						OFFSET 0.000000 1.600000 0.340000
						CHANNELS 3 Zrotation Yrotation Xrotation
						JOINT Head
						{
							OFFSET 0.000000 1.667000 -0.240000
							CHANNELS 3 Zrotation Yrotation Xrotation
							End Site
							{
								OFFSET 0.000000 0.000000 0.000000
							}
						}
					}
				}
				JOINT LeftShoulder
				{
					OFFSET 0.000000 0.000000 0.000000
					CHANNELS 3 Zrotation Yrotation Xrotation
					JOINT LeftArm
					{
						OFFSET 2.700000 1.550000 -0.730000
						CHANNELS 3 Zrotation Yrotation Xrotation
						JOINT LeftForeArm
						{
							OFFSET 5.450000 0.000000 0.000000
							CHANNELS 3 Zrotation Yrotation Xrotation
							JOINT LeftHand
							{
								OFFSET 3.450000 0.000000 0.000000
								CHANNELS 3 Zrotation Yrotation Xrotation
								JOINT LeftHandIndex1
								{
									OFFSET 0.750000 0.000000 0.000000
									CHANNELS 3 Zrotation Yrotation Xrotation
									End Site
									{
										OFFSET 0.000000 0.000000 0.000000
									}
								}
							}
						}
					}
				}
				JOINT RightShoulder
				{
					OFFSET 0.000000 0.000000 0.000000
					CHANNELS 3 Zrotation Yrotation Xrotation
					JOINT RightArm
					{
						OFFSET -2.700000 1.550000 -0.730000
						CHANNELS 3 Zrotation Yrotation Xrotation
						JOINT RightForeArm
						{
							OFFSET -5.450000 0.000000 0.000000
							CHANNELS 3 Zrotation Yrotation Xrotation
							JOINT RightHand
							{
								OFFSET -3.450000 0.000000 0.000000
								CHANNELS 3 Zrotation Yrotation Xrotation
								JOINT RightHandIndex1
								{
									OFFSET -0.750000 0.000000 0.000000
									CHANNELS 3 Zrotation Yrotation Xrotation
									End Site
									{
										OFFSET 0.000000 0.000000 0.000000
									}
								}
							}
						}
					}
				}
			}
		}
	}
}
MOTION
Frames: 7
Frame Time: 0.016667
0.661860 16.762080 -1.172040 -20.353292 -37.199942 6.563137 -15.074111 10.477253 1.885650 12.709937 -1.397540 -1.035004 -8.301377 4.403125 -2.801913 -0.426023 4.773308 3.118273 0.350850 0.256880 0.287410 19.089509 -7.948264 6.590131 33.993814 22.288467 -35.312996 -1.344585 -4.106027 45.926521 -0.829568 -5.942792 2.239608 0.301200 0.480940 0.378590 -6.017500 0.465680 -8.739151 39.342872 -14.384713 28.783008 -11.967427 -0.847089 15.550104 -5.666426 -3.185062 -9.825324 -7.829575 0.155824 28.612039 -9.639570 5.410860 -7.100900 3.732565 -17.576319 1.162641 15.001277 -25.343272 -15.354656 76.585171 -5.108300 -12.006602 -4.431650 3.116971 0.175910 0.484540 -0.075080 0.197370 6.859530 13.028508 7.619671 51.398364 0.270954 -10.528837 -0.166189 32.320601 -2.362836 1.856535 -1.614592 -0.203980 0.256470 0.023550 -0.084480 
0.661360 16.783290 -1.165140 -20.896120 -35.896054 6.003136 -15.030478 10.713701 2.053653 12.989333 -1.392836 0.117226 -7.408574 4.302162 -3.666066 -0.397613 4.838057 3.102990 0.353720 0.248870 0.293980 19.060563 -8.344858 6.089322 36.647323 17.377969 -27.870855 -7.055603 -1.468631 39.521309 -0.668535 -5.007624 2.561598 0.285300 0.468530 0.378490 -5.903379 0.402080 -8.555209 39.590151 -15.395708 29.833721 -11.045105 -2.079896 15.374061 -6.320239 -3.443262 -10.146754 -8.107491 0.458649 27.426248 -9.078400 5.300790 -8.129490 3.783085 -17.373972 1.483895 16.014982 -22.787755 -15.497839 72.893247 -5.235683 -11.448861 -4.449962 3.110221 0.206870 0.455120 -0.056070 0.195780 8.306201 12.407398 7.758742 49.466658 -2.489984 -13.455507 2.491704 40.015283 -1.982450 1.770277 -1.661909 -0.201340 0.261610 0.023230 -0.084530 
0.653580 16.788770 -1.144200 -21.223006 -33.660823 4.937423 -14.969753 10.962126 2.279964 13.488558 -1.489302 1.321531 -6.917200 4.251328 -4.580926 -0.351967 4.930828 3.058713 0.380230 0.272650 0.317920 19.033013 -8.830094 5.476516 36.808252 12.132696 -20.581169 -9.656393 -0.797858 31.521021 -0.572353 -4.252969 2.816317 0.277760 0.420480 0.385650 -5.778589 0.356485 -8.327961 40.161391 -16.810739 30.348708 -10.815530 -3.796778 15.051007 -6.528532 -3.637204 -10.276672 -8.400882 0.678467 26.594829 -8.686300 5.172980 -9.702420 3.465859 -17.081819 1.718590 17.081311 -20.771433 -15.496271 70.276382 -6.029523 -11.323859 -4.434216 3.108148 0.246940 0.404490 -0.011230 0.191440 9.257306 11.459070 7.677702 48.151265 -4.779534 -15.591703 7.679368 45.967438 -0.616756 1.732744 -1.732333 -0.177530 0.247110 0.009530 -0.086220 
0.634350 16.791520 -1.124180 -20.237299 -32.084498 2.637874 -14.934987 11.263600 2.397342 13.538936 -1.417003 2.303273 -7.343283 4.506938 -3.597127 -0.323843 4.968508 3.000123 0.438240 0.325430 0.370100 18.997790 -9.154558 5.091630 36.032237 8.001175 -14.198525 -12.252407 -0.447017 24.325848 -0.588860 -3.861620 2.940496 0.272570 0.313210 0.384300 -5.662383 0.107718 -8.149110 38.665760 -17.307495 31.580626 -9.726224 -5.288870 15.050749 -6.702099 -3.852156 -10.208823 -9.250306 1.015937 27.386153 -8.135450 5.088730 -12.131270 2.086625 -17.273839 1.665036 18.049482 -19.921401 -15.625930 69.600497 -7.355728 -11.735576 -4.344174 3.103117 0.321690 0.307550 0.064840 0.176350 11.083141 11.319224 7.780732 46.109713 -6.186572 -16.700463 11.865221 49.225021 0.769796 1.731127 -1.777838 -0.135900 0.211690 -0.019740 -0.103350 
0.617020 16.771400 -1.107410 -19.888026 -30.271535 2.106458 -14.923417 11.515723 2.348728 13.576628 -1.298202 1.584986 -7.584670 4.794584 -1.638987 -0.346766 4.934052 2.999073 0.416780 0.289310 0.348220 18.981876 -9.214137 4.979915 35.927011 5.989999 -11.323752 -14.033135 -0.336560 20.112760 -0.596469 -3.737967 2.996308 0.236450 0.307290 0.388250 -5.526782 -0.310661 -8.038657 38.105586 -17.295532 30.596158 -8.759611 -6.463434 14.859381 -6.491422 -4.053620 -10.000212 -10.283599 1.251654 28.848499 -7.821530 4.918490 -12.349940 0.359338 -17.250503 1.380786 18.234925 -21.131354 -15.348883 69.860025 -8.785733 -12.304108 -4.308972 3.058206 0.355450 0.284120 0.077530 0.172830 12.432163 11.201802 7.878721 44.538766 -6.717718 -16.570391 14.383256 49.576446 1.758489 1.736094 -1.774930 -0.134660 0.208990 -0.001890 -0.102400 
0.597880 16.754650 -1.099720 -19.962218 -29.818354 2.249138 -14.915775 11.670345 2.230302 13.875637 -1.198550 0.438840 -7.768637 5.122356 0.733284 -0.380785 4.898146 3.005972 0.392880 0.249490 0.327220 18.978110 -9.204746 5.017797 36.434521 5.379408 -10.199462 -14.600398 -0.226221 19.398621 -0.608327 -3.776694 3.001753 0.207190 0.322390 0.384850 -5.477937 -0.552931 -7.982210 37.944371 -16.862274 29.443289 -8.115615 -6.747166 14.938956 -6.412586 -4.161646 -9.877132 -11.179996 1.309343 30.531797 -7.514130 4.746520 -11.631820 -1.158125 -17.508591 1.205070 17.257829 -22.741790 -15.076534 71.248789 -10.523816 -13.495564 -4.282865 3.016165 0.365850 0.283760 0.065450 0.171170 13.752167 11.500540 8.013174 43.602817 -6.650276 -16.207911 14.696697 48.902490 1.922509 1.737906 -1.758497 -0.141600 0.212980 0.015130 -0.102460 
0.567520 16.728050 -1.085910 -18.050188 -29.878121 1.001110 -14.905188 11.972854 2.175197 12.304214 -0.948766 -0.313289 -7.693170 5.402787 3.434375 -0.396316 4.774005 3.052881 0.353070 0.207080 0.294120 18.946825 -9.323578 4.946666 35.476847 4.070027 -9.063499 -15.364095 -0.205450 20.106003 -0.639302 -3.952140 2.966269 0.176700 0.337100 0.354630 -5.394296 -0.916965 -7.873063 34.973223 -15.341297 28.855731 -6.542850 -6.895403 15.398866 -6.718846 -3.484055 -9.938242 -10.923624 1.368212 33.123918 -6.613240 4.975410 -10.322590 -1.964789 -18.368399 1.334362 15.205930 -24.162356 -14.884257 73.032550 -11.922992 -14.881115 -4.257525 2.981512 0.365350 0.278450 0.048350 0.172230 15.066573 11.990983 8.088537 43.349616 -5.895364 -15.906200 13.420396 47.249461 1.354335 1.761628 -1.722699 -0.158760 0.220880 0.021750 -0.098030 
